<mxfile host="app.diagrams.net" agent="Mozilla/5.0 (Windows NT 10.0; Win64; x64) AppleWebKit/537.36 (KHTML, like Gecko) Chrome/133.0.0.0 Safari/537.36 Edg/133.0.0.0" version="26.0.16">
  <diagram name="Page-1" id="MaFgAhiJQYMkroolkZgw">
    <mxGraphModel dx="1473" dy="780" grid="1" gridSize="10" guides="1" tooltips="1" connect="1" arrows="1" fold="1" page="1" pageScale="1" pageWidth="827" pageHeight="1169" math="0" shadow="0">
      <root>
        <mxCell id="0" />
        <mxCell id="1" parent="0" />
        <mxCell id="tryUGg7BSyI1bhGZ8a90-1" value="" style="rounded=0;whiteSpace=wrap;html=1;" vertex="1" parent="1">
          <mxGeometry x="420" width="600" height="230" as="geometry" />
        </mxCell>
        <mxCell id="tryUGg7BSyI1bhGZ8a90-2" value="" style="rounded=0;whiteSpace=wrap;html=1;" vertex="1" parent="1">
          <mxGeometry x="780" y="370" width="320" height="230" as="geometry" />
        </mxCell>
        <mxCell id="tryUGg7BSyI1bhGZ8a90-3" value="" style="rounded=0;whiteSpace=wrap;html=1;" vertex="1" parent="1">
          <mxGeometry x="414" y="370" width="320" height="230" as="geometry" />
        </mxCell>
        <mxCell id="tryUGg7BSyI1bhGZ8a90-4" value="" style="rounded=0;whiteSpace=wrap;html=1;" vertex="1" parent="1">
          <mxGeometry x="10" y="380" width="320" height="230" as="geometry" />
        </mxCell>
        <mxCell id="tryUGg7BSyI1bhGZ8a90-21" style="edgeStyle=orthogonalEdgeStyle;rounded=0;orthogonalLoop=1;jettySize=auto;html=1;" edge="1" parent="1" source="tryUGg7BSyI1bhGZ8a90-5" target="tryUGg7BSyI1bhGZ8a90-19">
          <mxGeometry relative="1" as="geometry" />
        </mxCell>
        <mxCell id="tryUGg7BSyI1bhGZ8a90-5" value="CARTO" style="rounded=1;whiteSpace=wrap;html=1;" vertex="1" parent="1">
          <mxGeometry x="540" y="10" width="120" height="60" as="geometry" />
        </mxCell>
        <mxCell id="tryUGg7BSyI1bhGZ8a90-6" value="CARTO" style="rounded=1;whiteSpace=wrap;html=1;" vertex="1" parent="1">
          <mxGeometry x="100" y="420" width="120" height="60" as="geometry" />
        </mxCell>
        <mxCell id="tryUGg7BSyI1bhGZ8a90-7" value="CARTO" style="rounded=1;whiteSpace=wrap;html=1;" vertex="1" parent="1">
          <mxGeometry x="480" y="400" width="120" height="60" as="geometry" />
        </mxCell>
        <mxCell id="tryUGg7BSyI1bhGZ8a90-8" value="CARTO" style="rounded=1;whiteSpace=wrap;html=1;" vertex="1" parent="1">
          <mxGeometry x="870" y="390" width="120" height="60" as="geometry" />
        </mxCell>
        <mxCell id="tryUGg7BSyI1bhGZ8a90-20" style="edgeStyle=orthogonalEdgeStyle;rounded=0;orthogonalLoop=1;jettySize=auto;html=1;" edge="1" parent="1" source="tryUGg7BSyI1bhGZ8a90-9" target="tryUGg7BSyI1bhGZ8a90-19">
          <mxGeometry relative="1" as="geometry" />
        </mxCell>
        <mxCell id="tryUGg7BSyI1bhGZ8a90-9" value="CARTO.API" style="rounded=1;whiteSpace=wrap;html=1;" vertex="1" parent="1">
          <mxGeometry x="490" y="130" width="160" height="60" as="geometry" />
        </mxCell>
        <mxCell id="tryUGg7BSyI1bhGZ8a90-13" style="edgeStyle=orthogonalEdgeStyle;rounded=0;orthogonalLoop=1;jettySize=auto;html=1;" edge="1" parent="1" source="tryUGg7BSyI1bhGZ8a90-10" target="tryUGg7BSyI1bhGZ8a90-9">
          <mxGeometry relative="1" as="geometry">
            <Array as="points">
              <mxPoint x="160" y="290" />
              <mxPoint x="570" y="290" />
            </Array>
          </mxGeometry>
        </mxCell>
        <mxCell id="tryUGg7BSyI1bhGZ8a90-10" value="Data Sync" style="rounded=1;whiteSpace=wrap;html=1;" vertex="1" parent="1">
          <mxGeometry x="100" y="510" width="120" height="60" as="geometry" />
        </mxCell>
        <mxCell id="tryUGg7BSyI1bhGZ8a90-14" style="edgeStyle=orthogonalEdgeStyle;rounded=0;orthogonalLoop=1;jettySize=auto;html=1;" edge="1" parent="1" source="tryUGg7BSyI1bhGZ8a90-11" target="tryUGg7BSyI1bhGZ8a90-9">
          <mxGeometry relative="1" as="geometry" />
        </mxCell>
        <mxCell id="tryUGg7BSyI1bhGZ8a90-11" value="Data Sync" style="rounded=1;whiteSpace=wrap;html=1;" vertex="1" parent="1">
          <mxGeometry x="490" y="500" width="120" height="60" as="geometry" />
        </mxCell>
        <mxCell id="tryUGg7BSyI1bhGZ8a90-15" style="edgeStyle=orthogonalEdgeStyle;rounded=0;orthogonalLoop=1;jettySize=auto;html=1;" edge="1" parent="1" source="tryUGg7BSyI1bhGZ8a90-12" target="tryUGg7BSyI1bhGZ8a90-9">
          <mxGeometry relative="1" as="geometry">
            <Array as="points">
              <mxPoint x="960" y="290" />
              <mxPoint x="570" y="290" />
            </Array>
          </mxGeometry>
        </mxCell>
        <mxCell id="tryUGg7BSyI1bhGZ8a90-12" value="Data Sync" style="rounded=1;whiteSpace=wrap;html=1;" vertex="1" parent="1">
          <mxGeometry x="900" y="510" width="120" height="60" as="geometry" />
        </mxCell>
        <mxCell id="tryUGg7BSyI1bhGZ8a90-18" style="edgeStyle=orthogonalEdgeStyle;rounded=0;orthogonalLoop=1;jettySize=auto;html=1;" edge="1" parent="1" source="tryUGg7BSyI1bhGZ8a90-16" target="tryUGg7BSyI1bhGZ8a90-9">
          <mxGeometry relative="1" as="geometry" />
        </mxCell>
        <mxCell id="tryUGg7BSyI1bhGZ8a90-16" value="Analytics" style="rounded=1;whiteSpace=wrap;html=1;" vertex="1" parent="1">
          <mxGeometry x="780" y="40" width="180" height="100" as="geometry" />
        </mxCell>
        <mxCell id="tryUGg7BSyI1bhGZ8a90-19" value="carto.data" style="rounded=1;whiteSpace=wrap;html=1;" vertex="1" parent="1">
          <mxGeometry x="440" y="20" width="70" height="60" as="geometry" />
        </mxCell>
        <mxCell id="tryUGg7BSyI1bhGZ8a90-22" value="IIS" style="text;html=1;align=center;verticalAlign=middle;whiteSpace=wrap;rounded=0;" vertex="1" parent="1">
          <mxGeometry x="840" y="150" width="60" height="30" as="geometry" />
        </mxCell>
      </root>
    </mxGraphModel>
  </diagram>
</mxfile>
